<?xml version="1.0"?>
<svg xmlns="http://www.w3.org/2000/svg" xmlns:xlink="http://www.w3.org/1999/xlink" xmlns:svgjs="http://svgjs.com/svgjs" version="1.1" width="512" height="512" x="0" y="0" viewBox="0 0 512 512" style="enable-background:new 0 0 512 512" xml:space="preserve"><g><path xmlns="http://www.w3.org/2000/svg" d="M501.75,448H18V419H36a6,6,0,0,0,0-12H18V370h7a6,6,0,0,0,0-12H18V322H36a6,6,0,0,0,0-12H18V274h7a6,6,0,0,0,0-12H18V226H36a6,6,0,0,0,0-12H18V177h7a6,6,0,0,0,0-12H18V129H36a6,6,0,0,0,0-12H18V81h7a6,6,0,0,0,0-12H18V31A6,6,0,0,0,6,31V481a5.791,5.791,0,0,0,5.75,6h490a6.218,6.218,0,0,0,6.25-6V453.615C508,450.3,505.063,448,501.75,448ZM496,475H18V460H496Z" fill="#ffffff" data-original="#000000" style=""/><path xmlns="http://www.w3.org/2000/svg" d="M247.784,254H256v34a6,6,0,0,0,12,0V254h7.716c3.314,0,6.284-2.2,6.284-5.51v-55a6.684,6.684,0,0,0-6.284-6.49H267V154a6,6,0,0,0-12,0v33h-7.216c-3.314,0-5.784,3.177-5.784,6.49v55C242,251.8,244.47,254,247.784,254ZM254,199h16v43H254Z" fill="#ffffff" data-original="#000000" style=""/><path xmlns="http://www.w3.org/2000/svg" d="M307.784,214H316v34a6,6,0,0,0,12,0V214h7.716c3.314,0,6.284-2.2,6.284-5.51v-55a6.684,6.684,0,0,0-6.284-6.49H327V114a6,6,0,0,0-12,0v33h-7.216c-3.314,0-5.784,3.177-5.784,6.49v55C302,211.8,304.47,214,307.784,214ZM314,159h16v43H314Z" fill="#ffffff" data-original="#000000" style=""/><path xmlns="http://www.w3.org/2000/svg" d="M367.784,294H376v34a6,6,0,0,0,12,0V294h7.716c3.314,0,6.284-2.2,6.284-5.51v-135a6.684,6.684,0,0,0-6.284-6.49H387V114a6,6,0,0,0-12,0v33h-7.216c-3.314,0-5.784,3.177-5.784,6.49v135C362,291.8,364.47,294,367.784,294ZM374,159h16V282H374Z" fill="#ffffff" data-original="#000000" style=""/><path xmlns="http://www.w3.org/2000/svg" d="M417.784,344H426v34a6,6,0,0,0,12,0V344h7.716c3.314,0,6.284-2.2,6.284-5.51v-75a6.684,6.684,0,0,0-6.284-6.49H437V224a6,6,0,0,0-12,0v33h-7.216c-3.314,0-5.784,3.177-5.784,6.49v75C412,341.8,414.47,344,417.784,344ZM424,269h16v63H424Z" fill="#ffffff" data-original="#000000" style=""/><path xmlns="http://www.w3.org/2000/svg" d="M127.784,374H136v34a6,6,0,0,0,12,0V374h7.716c3.314,0,6.284-2.2,6.284-5.51v-75a6.684,6.684,0,0,0-6.284-6.49H147V254a6,6,0,0,0-12,0v33h-7.216c-3.314,0-5.784,3.177-5.784,6.49v75C122,371.8,124.47,374,127.784,374ZM134,299h16v63H134Z" fill="#ffffff" data-original="#000000" style=""/><path xmlns="http://www.w3.org/2000/svg" d="M187.784,324H196v34a6,6,0,0,0,12,0V324h7.716c3.314,0,6.284-2.2,6.284-5.51v-95a6.684,6.684,0,0,0-6.284-6.49H207V184a6,6,0,0,0-12,0v33h-7.216c-3.314,0-5.784,3.177-5.784,6.49v95C182,321.8,184.47,324,187.784,324ZM194,229h16v83H194Z" fill="#ffffff" data-original="#000000" style=""/><path xmlns="http://www.w3.org/2000/svg" d="M67.784,334H76v34a6,6,0,0,0,12,0V334h7.716c3.314,0,6.284-2.2,6.284-5.51v-55A6.684,6.684,0,0,0,95.716,267H87V234a6,6,0,0,0-12,0v33H67.784C64.47,267,62,270.177,62,273.49v55C62,331.8,64.47,334,67.784,334ZM74,279H90v43H74Z" fill="#ffffff" data-original="#000000" style=""/></g></svg>
