<?xml version="1.0"?>
<svg xmlns="http://www.w3.org/2000/svg" xmlns:xlink="http://www.w3.org/1999/xlink" xmlns:svgjs="http://svgjs.com/svgjs" version="1.1" width="512" height="512" x="0" y="0" viewBox="0 0 512 512" style="enable-background:new 0 0 512 512" xml:space="preserve"><g><path xmlns="http://www.w3.org/2000/svg" d="m488 72h-352a8.00008 8.00008 0 0 0 -8 8v232a8.00008 8.00008 0 0 0 8 8h216v72h-32v16h128v16h-128v16h136a8.00008 8.00008 0 0 0 8-8v-112h24a8.00008 8.00008 0 0 0 8-8v-232a8.00008 8.00008 0 0 0 -8-8zm-8 16v32h-336v-32zm-112 232h16v16a8 8 0 0 0 16 0v-16h16v72h-48zm80 72h-16v-72h16zm-304-88v-168h336v168z" fill="#ffffff" data-original="#000000" style=""/><path xmlns="http://www.w3.org/2000/svg" d="m56 440h208a40.04552 40.04552 0 0 0 40-40 8.00008 8.00008 0 0 0 -8-8h-32v-56h-16v56h-176v-136h40v-16h-48a8.00008 8.00008 0 0 0 -8 8v144h-32a8.00008 8.00008 0 0 0 -8 8 40.04552 40.04552 0 0 0 40 40zm76.686-32 5.65673 5.65674a8.00076 8.00076 0 0 0 5.65727 2.34326h32a8.00076 8.00076 0 0 0 5.65723-2.34326l5.65677-5.65674h99.315a24.04166 24.04166 0 0 1 -22.629 16h-208a24.04166 24.04166 0 0 1 -22.62891-16z" fill="#ffffff" data-original="#000000" style=""/><circle xmlns="http://www.w3.org/2000/svg" cx="160" cy="104" r="8" fill="#ffffff" data-original="#000000" style=""/><circle xmlns="http://www.w3.org/2000/svg" cx="184" cy="104" r="8" fill="#ffffff" data-original="#000000" style=""/><circle xmlns="http://www.w3.org/2000/svg" cx="208" cy="104" r="8" fill="#ffffff" data-original="#000000" style=""/><path xmlns="http://www.w3.org/2000/svg" d="m160 152h24v16h-24z" fill="#ffffff" data-original="#000000" style=""/><path xmlns="http://www.w3.org/2000/svg" d="m208 152h56v16h-56z" fill="#ffffff" data-original="#000000" style=""/><path xmlns="http://www.w3.org/2000/svg" d="m280 152h24v16h-24z" fill="#ffffff" data-original="#000000" style=""/><path xmlns="http://www.w3.org/2000/svg" d="m160 192h24v16h-24z" fill="#ffffff" data-original="#000000" style=""/><path xmlns="http://www.w3.org/2000/svg" d="m208 192h32v16h-32z" fill="#ffffff" data-original="#000000" style=""/><path xmlns="http://www.w3.org/2000/svg" d="m256 192h48v16h-48z" fill="#ffffff" data-original="#000000" style=""/><path xmlns="http://www.w3.org/2000/svg" d="m160 232h24v16h-24z" fill="#ffffff" data-original="#000000" style=""/><path xmlns="http://www.w3.org/2000/svg" d="m208 232h96v16h-96z" fill="#ffffff" data-original="#000000" style=""/><path xmlns="http://www.w3.org/2000/svg" d="m160 272h24v16h-24z" fill="#ffffff" data-original="#000000" style=""/><path xmlns="http://www.w3.org/2000/svg" d="m208 272h32v16h-32z" fill="#ffffff" data-original="#000000" style=""/><path xmlns="http://www.w3.org/2000/svg" d="m256 272h48v16h-48z" fill="#ffffff" data-original="#000000" style=""/><path xmlns="http://www.w3.org/2000/svg" d="m354.34277 186.34326-24 24a8 8 0 0 0 0 11.31348l24 24 11.31446-11.31348-18.34375-18.34326 18.34375-18.34326z" fill="#ffffff" data-original="#000000" style=""/><path xmlns="http://www.w3.org/2000/svg" d="m429.65723 186.34326-11.31446 11.31348 18.34375 18.34326-18.34375 18.34326 11.31446 11.31348 24-24a8 8 0 0 0 0-11.31348z" fill="#ffffff" data-original="#000000" style=""/><path xmlns="http://www.w3.org/2000/svg" d="m341.404 208h101.193v16.001h-101.193z" transform="matrix(.316 -.949 .949 .316 63.129 519.585)" fill="#ffffff" data-original="#000000" style=""/></g></svg>
