<?xml version="1.0"?>
<svg xmlns="http://www.w3.org/2000/svg" xmlns:xlink="http://www.w3.org/1999/xlink" xmlns:svgjs="http://svgjs.com/svgjs" version="1.1" width="512" height="512" x="0" y="0" viewBox="0 0 512 512" style="enable-background:new 0 0 512 512" xml:space="preserve" class=""><g><g xmlns="http://www.w3.org/2000/svg" fill-rule="evenodd"><path d="m504.230469 285.375c.183593-.226562.359375-.460938.523437-.707031.007813-.011719.011719-.019531.019532-.03125.15625-.234375.296874-.476563.433593-.722657.039063-.074218.078125-.152343.117188-.230468.101562-.195313.195312-.394532.285156-.597656.03125-.074219.0625-.144532.09375-.222657.109375-.269531.210937-.546875.300781-.832031.003906-.011719.003906-.023438.007813-.039062.082031-.265626.148437-.539063.207031-.816407.015625-.082031.03125-.167969.046875-.25.039063-.21875.074219-.4375.097656-.65625.011719-.085937.023438-.171875.027344-.253906.027344-.296875.046875-.597656.046875-.898437v-119.511719c0-.300781-.019531-.597657-.046875-.894531-.003906-.085938-.019531-.171876-.027344-.253907-.023437-.222656-.058593-.441406-.097656-.660156-.015625-.082031-.03125-.164063-.046875-.25-.058594-.277344-.125-.550781-.207031-.820313-.003907-.011718-.003907-.023437-.007813-.035156-.089844-.28125-.191406-.558594-.300781-.832031-.027344-.074219-.0625-.148437-.09375-.222656-.089844-.203125-.183594-.402344-.285156-.601563-.039063-.074218-.078125-.152344-.117188-.226562-.136719-.246094-.277343-.484375-.429687-.71875-.011719-.011719-.015625-.023438-.023438-.039063-.164062-.242187-.339844-.476562-.523437-.703125-.050781-.066406-.109375-.132812-.164063-.199218-.144531-.171876-.296875-.335938-.453125-.5-.035156-.035157-.066406-.078126-.105469-.117188l-149.605468-149.601562c-1.875-1.875-4.417969-2.929688-7.074219-2.929688-2.648437 0-5.191406 1.054688-7.070313 2.929688l-175.472656 175.472656h-60.703125c-5.523437 0-10 4.476562-10 10 0 5.523437 4.476563 10 10 10h40.703125l-55.265625 55.265625h-56.738281c-5.523438 0-10 4.476562-10 10 0 5.523437 4.476562 10 10 10h36.738281l-11.898437 11.898437c-3.90625 3.90625-3.90625 10.238282 0 14.140625l29.226562 29.226563h-36.347656c-5.523438 0-10 4.476562-10 10 0 5.523437 4.476562 10 10 10h56.347656l55.265625 55.265625h-58.03125c-5.519531 0-10 4.480469-10 10 0 5.523437 4.480469 10 10 10h78.03125l84.867188 84.871093c1.878906 1.875 4.421875 2.929688 7.074219 2.929688 2.648437 0 5.191406-1.054688 7.070312-2.929688l222.882812-222.882812c.035157-.035156.066407-.074219.101563-.113281.160156-.164063.3125-.332031.457031-.503907.054688-.066406.109375-.128906.164063-.195312zm-53.410157-66.011719 35.613282-35.613281v71.226562zm-177.265624 268.496094-63.65625-63.660156h30.429687c5.523437 0 10-4.476563 10-10 0-5.519531-4.476563-10-10-10h-50.429687l-55.269532-55.265625h25.398438c5.523437 0 10-4.476563 10-10 0-5.523438-4.476563-10-10-10h-45.398438l-36.296875-36.296875 18.972657-18.96875h107.289062c5.519531 0 10-4.476563 10-10 0-5.523438-4.480469-10-10-10h-87.289062l55.265624-55.265625h119.664063c5.519531 0 10-4.476563 10-10 0-5.523438-4.480469-10-10-10h-99.664063l154.261719-154.261719 135.464844 135.464844-52.6875 52.683593c-3.90625 3.90625-3.90625 10.238282 0 14.144532l52.6875 52.683594zm0 0" fill="#ffffff" data-original="#000000" style="" class=""/><path d="m142.945312 123.136719h49.019532c5.523437 0 10-4.480469 10-10 0-5.523438-4.476563-10-10-10h-49.019532c-5.519531 0-10 4.476562-10 10 0 5.519531 4.480469 10 10 10zm0 0" fill="#ffffff" data-original="#000000" style="" class=""/><path d="m63.582031 198.402344c5.507813 0 10-4.492188 10-10 0-5.507813-4.492187-10-10-10-5.507812 0-10 4.492187-10 10 0 5.507812 4.492188 10 10 10zm0 0" fill="#ffffff" data-original="#000000" style="" class=""/><path d="m10 328.933594c-5.507812 0-10 4.492187-10 10 0 5.507812 4.492188 10 10 10s10-4.492188 10-10c0-5.507813-4.492188-10-10-10zm0 0" fill="#ffffff" data-original="#000000" style="" class=""/></g></g></svg>
