<?xml version="1.0"?>
<svg xmlns="http://www.w3.org/2000/svg" xmlns:xlink="http://www.w3.org/1999/xlink" xmlns:svgjs="http://svgjs.com/svgjs" version="1.1" width="512" height="512" x="0" y="0" viewBox="0 0 128 128" style="enable-background:new 0 0 512 512" xml:space="preserve" class=""><g><g xmlns="http://www.w3.org/2000/svg"><path d="M122.48,53.588a1.75,1.75,0,0,0-1.828.156L117.8,55.859a54.673,54.673,0,0,0-1.361-6.388l2.445-7.207a1.752,1.752,0,0,0-.029-1.205l-2.817-7.13a1.749,1.749,0,0,0-3.113-.283l-1.88,3.016a54.083,54.083,0,0,0-4.715-6.858l-.623-7.579a1.751,1.751,0,0,0-.507-1.094L99.775,15.71a1.749,1.749,0,0,0-2.967.979L96.284,20.2A54.749,54.749,0,0,0,90.8,16.646L87.436,9.823a1.758,1.758,0,0,0-.874-.831l-7.033-3.05a1.75,1.75,0,0,0-2.4,2l.8,3.457a54.361,54.361,0,0,0-8.176-1.5L63.949,4.972a1.75,1.75,0,0,0-1.132-.415H55.15a1.75,1.75,0,0,0-1.406,2.791L55.859,10.2a54.5,54.5,0,0,0-6.388,1.361L42.264,9.12a1.758,1.758,0,0,0-1.205.029l-7.13,2.817a1.749,1.749,0,0,0-.283,3.113l3.016,1.88A54.09,54.09,0,0,0,29.8,21.675l-7.579.622a1.751,1.751,0,0,0-1.094.507L15.71,28.225a1.749,1.749,0,0,0,.979,2.967l3.511.525A54.778,54.778,0,0,0,16.645,37.2L9.823,40.564a1.758,1.758,0,0,0-.831.874l-3.05,7.033a1.75,1.75,0,0,0,2,2.4l3.457-.8a54.361,54.361,0,0,0-1.5,8.176L4.972,64.051a1.75,1.75,0,0,0-.415,1.132V72.85a1.75,1.75,0,0,0,2.791,1.406L10.2,72.142a54.656,54.656,0,0,0,1.361,6.387L9.12,85.736a1.752,1.752,0,0,0,.029,1.2l2.817,7.13a1.749,1.749,0,0,0,3.113.283l1.88-3.016A54.09,54.09,0,0,0,21.675,98.2l.622,7.579a1.751,1.751,0,0,0,.507,1.094l5.421,5.421a1.749,1.749,0,0,0,2.967-.979l.525-3.511a54.778,54.778,0,0,0,5.483,3.555l3.364,6.822a1.76,1.76,0,0,0,.873.831l7.034,3.05a1.75,1.75,0,0,0,2.4-2l-.8-3.457a54.361,54.361,0,0,0,8.176,1.5l5.806,4.924a1.75,1.75,0,0,0,1.132.415H72.85a1.75,1.75,0,0,0,1.406-2.791L72.142,117.8a54.542,54.542,0,0,0,6.388-1.361l7.206,2.445a1.757,1.757,0,0,0,1.2-.029l7.13-2.817a1.749,1.749,0,0,0,.283-3.113l-3.016-1.88a54.057,54.057,0,0,0,6.858-4.715l7.579-.623a1.751,1.751,0,0,0,1.094-.507l5.421-5.421a1.749,1.749,0,0,0-.979-2.967l-3.512-.524a54.863,54.863,0,0,0,3.556-5.484l6.822-3.364a1.76,1.76,0,0,0,.831-.873l3.05-7.034a1.75,1.75,0,0,0-2-2.4l-3.457.8a54.361,54.361,0,0,0,1.5-8.176l4.924-5.806a1.75,1.75,0,0,0,.415-1.132V55.15A1.747,1.747,0,0,0,122.48,53.588Zm-2.537,8.587-4.837,5.7a1.75,1.75,0,0,0-.431.994,50.9,50.9,0,0,1-2.264,10.9,1.751,1.751,0,0,0,2.06,2.247l2.994-.7-1.412,3.258-6.741,3.324a1.75,1.75,0,0,0-.75.718,51.115,51.115,0,0,1-5.336,7.832A1.752,1.752,0,0,0,104.32,99.3l3.039.454-2.51,2.511-7.449.612a1.747,1.747,0,0,0-1,.4,50.961,50.961,0,0,1-9.324,6.1,1.754,1.754,0,0,0-.217,2.988c.031.022.061.042.092.062l2.609,1.625-3.3,1.3-7.173-2.432a1.724,1.724,0,0,0-.986-.006,50.891,50.891,0,0,1-9.308,1.761,1.75,1.75,0,0,0-1.244,2.783l1.835,2.478H65.825l-5.731-4.861a1.756,1.756,0,0,0-.967-.407,50.709,50.709,0,0,1-10.9-2.266,1.751,1.751,0,0,0-2.248,2.06l.7,3-3.258-1.412-3.32-6.734a1.762,1.762,0,0,0-.722-.756,51.173,51.173,0,0,1-7.832-5.337,1.749,1.749,0,0,0-2.847,1.089l-.455,3.044-2.511-2.51-.614-7.482a1.754,1.754,0,0,0-.394-.971,50.939,50.939,0,0,1-6.1-9.325,1.751,1.751,0,0,0-1.484-.953,1.724,1.724,0,0,0-1.561.822l-1.63,2.616-1.3-3.3,2.414-7.113a1.753,1.753,0,0,0,.024-1.046,50.967,50.967,0,0,1-1.761-9.308,1.75,1.75,0,0,0-2.783-1.244L8.057,69.377V65.825l4.861-5.731a1.756,1.756,0,0,0,.407-.967,50.709,50.709,0,0,1,2.266-10.9,1.751,1.751,0,0,0-2.06-2.248l-3,.7,1.412-3.258,6.734-3.32a1.762,1.762,0,0,0,.756-.722,51.173,51.173,0,0,1,5.337-7.832A1.749,1.749,0,0,0,23.685,28.7l-3.044-.455,2.51-2.511,7.482-.614a1.754,1.754,0,0,0,.971-.394,50.939,50.939,0,0,1,9.325-6.1,1.751,1.751,0,0,0,.131-3.045l-2.616-1.63,3.3-1.3,7.113,2.414a1.745,1.745,0,0,0,1.046.024,50.891,50.891,0,0,1,9.308-1.761,1.754,1.754,0,0,0,1.238-2.792L58.624,8.057h3.551l5.692,4.827a1.749,1.749,0,0,0,1.006.441,50.9,50.9,0,0,1,10.9,2.264,1.751,1.751,0,0,0,2.247-2.06l-.7-2.994,3.258,1.412,3.324,6.741a1.75,1.75,0,0,0,.718.75,51.181,51.181,0,0,1,7.832,5.336A1.752,1.752,0,0,0,99.3,23.68l.454-3.039,2.511,2.51.612,7.449a1.747,1.747,0,0,0,.4,1,50.939,50.939,0,0,1,6.1,9.325,1.754,1.754,0,0,0,2.988.216c.022-.031.042-.061.062-.092l1.625-2.609,1.3,3.3-2.432,7.173a1.741,1.741,0,0,0-.006.986,50.967,50.967,0,0,1,1.761,9.308,1.754,1.754,0,0,0,2.792,1.238l2.469-1.828Z" fill="#ffffff" data-original="#000000" style=""/><path d="M64,41.459A22.541,22.541,0,1,0,86.541,64,22.567,22.567,0,0,0,64,41.459Zm0,41.582A19.041,19.041,0,1,1,83.041,64,19.063,19.063,0,0,1,64,83.041Z" fill="#ffffff" data-original="#000000" style=""/><path d="M82.231,30.443a1.75,1.75,0,0,0-1.673,3.075A34.691,34.691,0,0,1,98.682,64a1.75,1.75,0,0,0,3.5,0A38.193,38.193,0,0,0,82.231,30.443Z" fill="#ffffff" data-original="#000000" style=""/><path d="M65.9,29.369a34.838,34.838,0,0,1,5.8.807,1.8,1.8,0,0,0,.389.043,1.75,1.75,0,0,0,.385-3.457,38.269,38.269,0,0,0-6.386-.887,1.75,1.75,0,0,0-.19,3.494Z" fill="#ffffff" data-original="#000000" style=""/><path d="M47.442,94.482A34.691,34.691,0,0,1,29.318,64a1.75,1.75,0,0,0-3.5,0A38.193,38.193,0,0,0,45.769,97.557a1.75,1.75,0,1,0,1.673-3.075Z" fill="#ffffff" data-original="#000000" style=""/><path d="M62.4,98.646a34.774,34.774,0,0,1-6.105-.822,1.75,1.75,0,0,0-.774,3.414,38.405,38.405,0,0,0,6.721.905l.08,0a1.75,1.75,0,0,0,.078-3.5Z" fill="#ffffff" data-original="#000000" style=""/><path d="M64,52.837A11.163,11.163,0,1,0,75.163,64,11.176,11.176,0,0,0,64,52.837Zm0,18.826A7.663,7.663,0,1,1,71.663,64,7.671,7.671,0,0,1,64,71.663Z" fill="#ffffff" data-original="#000000" style=""/></g></g></svg>
